# xmcd CD database file
#
# Track frame offsets:
#	150
#	91160
#	126443
#	159192
#
# Disc length: 2488 seconds
#
# Revision: 0
# Processed by: cddbd v1.4PL0 Copyright (c) Steve Scherf et al.
# Submitted via: CDex 1.50Beta7
#
DISCID=2609b604
DTITLE=George Lewis - Solo Trombone Record
DYEAR=1976
DGENRE=Jazz
TTITLE0=Toneburst
TTITLE1=Phenomenology
TTITLE2=Untitled Dream Sequence
TTITLE3=Lush Life
EXTD=YEAR: 1976
EXTT0=
EXTT1=
EXTT2=
EXTT3=
PLAYORDER=
